<svg enable-background="new 0 0 100 100" viewBox="0 0 100 100" xmlns="http://www.w3.org/2000/svg"><svg height="100" shape-rendering="crispEdges" version="1.1" viewBox="0 0 2000 2000" width="100" xmlns="http://www.w3.org/2000/svg" xmlns:xlink="http://www.w3.org/1999/xlink"><path d="m0 0h2000v2000h-2000z" fill="#fff"/><path d="m629 173h57v57h-57z"/><path d="m686 173h57v57h-57z"/><path d="m743 173h57v57h-57z"/><path d="m800 173h57v57h-57z"/><path d="m914 173h57v57h-57z"/><path d="m971 173h57v57h-57z"/><path d="m1028 173h57v57h-57z"/><path d="m1085 173h57v57h-57z"/><path d="m1142 173h57v57h-57z"/><path d="m1256 173h57v57h-57z"/><path d="m800 230h57v57h-57z"/><path d="m857 230h57v57h-57z"/><path d="m1085 230h57v57h-57z"/><path d="m1142 230h57v57h-57z"/><path d="m1199 230h57v57h-57z"/><path d="m1256 230h57v57h-57z"/><path d="m1313 230h57v57h-57z"/><path d="m686 287h57v57h-57z"/><path d="m800 287h57v57h-57z"/><path d="m1142 287h57v57h-57z"/><path d="m1199 287h57v57h-57z"/><path d="m1313 287h57v57h-57z"/><path d="m743 344h57v57h-57z"/><path d="m800 344h57v57h-57z"/><path d="m1142 344h57v57h-57z"/><path d="m1313 344h57v57h-57z"/><path d="m743 401h57v57h-57z"/><path d="m800 401h57v57h-57z"/><path d="m857 401h57v57h-57z"/><path d="m971 401h57v57h-57z"/><path d="m1028 401h57v57h-57z"/><path d="m1085 401h57v57h-57z"/><path d="m1142 401h57v57h-57z"/><path d="m1199 401h57v57h-57z"/><path d="m1256 401h57v57h-57z"/><path d="m686 458h57v57h-57z"/><path d="m800 458h57v57h-57z"/><path d="m914 458h57v57h-57z"/><path d="m971 458h57v57h-57z"/><path d="m1256 458h57v57h-57z"/><path d="m629 515h57v57h-57z"/><path d="m743 515h57v57h-57z"/><path d="m857 515h57v57h-57z"/><path d="m971 515h57v57h-57z"/><path d="m1085 515h57v57h-57z"/><path d="m1199 515h57v57h-57z"/><path d="m1313 515h57v57h-57z"/><path d="m629 572h57v57h-57z"/><path d="m686 572h57v57h-57z"/><path d="m857 572h57v57h-57z"/><path d="m971 572h57v57h-57z"/><path d="m1028 572h57v57h-57z"/><path d="m1085 572h57v57h-57z"/><path d="m173 629h57v57h-57z"/><path d="m230 629h57v57h-57z"/><path d="m344 629h57v57h-57z"/><path d="m401 629h57v57h-57z"/><path d="m515 629h57v57h-57z"/><path d="m686 629h57v57h-57z"/><path d="m857 629h57v57h-57z"/><path d="m971 629h57v57h-57z"/><path d="m1028 629h57v57h-57z"/><path d="m1142 629h57v57h-57z"/><path d="m1256 629h57v57h-57z"/><path d="m1313 629h57v57h-57z"/><path d="m1427 629h57v57h-57z"/><path d="m1769 629h57v57h-57z"/><path d="m173 686h57v57h-57z"/><path d="m230 686h57v57h-57z"/><path d="m458 686h57v57h-57z"/><path d="m572 686h57v57h-57z"/><path d="m629 686h57v57h-57z"/><path d="m743 686h57v57h-57z"/><path d="m1028 686h57v57h-57z"/><path d="m1199 686h57v57h-57z"/><path d="m1313 686h57v57h-57z"/><path d="m1541 686h57v57h-57z"/><path d="m1598 686h57v57h-57z"/><path d="m1655 686h57v57h-57z"/><path d="m1769 686h57v57h-57z"/><path d="m287 743h57v57h-57z"/><path d="m344 743h57v57h-57z"/><path d="m515 743h57v57h-57z"/><path d="m686 743h57v57h-57z"/><path d="m857 743h57v57h-57z"/><path d="m914 743h57v57h-57z"/><path d="m1256 743h57v57h-57z"/><path d="m1313 743h57v57h-57z"/><path d="m1484 743h57v57h-57z"/><path d="m1598 743h57v57h-57z"/><path d="m230 800h57v57h-57z"/><path d="m287 800h57v57h-57z"/><path d="m458 800h57v57h-57z"/><path d="m572 800h57v57h-57z"/><path d="m629 800h57v57h-57z"/><path d="m1028 800h57v57h-57z"/><path d="m1085 800h57v57h-57z"/><path d="m1142 800h57v57h-57z"/><path d="m1199 800h57v57h-57z"/><path d="m1256 800h57v57h-57z"/><path d="m1313 800h57v57h-57z"/><path d="m1541 800h57v57h-57z"/><path d="m1598 800h57v57h-57z"/><path d="m1712 800h57v57h-57z"/><path d="m173 857h57v57h-57z"/><path d="m287 857h57v57h-57z"/><path d="m344 857h57v57h-57z"/><path d="m515 857h57v57h-57z"/><path d="m572 857h57v57h-57z"/><path d="m629 857h57v57h-57z"/><path d="m686 857h57v57h-57z"/><path d="m743 857h57v57h-57z"/><path d="m914 857h57v57h-57z"/><path d="m971 857h57v57h-57z"/><path d="m1028 857h57v57h-57z"/><path d="m1085 857h57v57h-57z"/><path d="m1142 857h57v57h-57z"/><path d="m1256 857h57v57h-57z"/><path d="m1313 857h57v57h-57z"/><path d="m1427 857h57v57h-57z"/><path d="m1541 857h57v57h-57z"/><path d="m1598 857h57v57h-57z"/><path d="m1655 857h57v57h-57z"/><path d="m1769 857h57v57h-57z"/><path d="m401 914h57v57h-57z"/><path d="m629 914h57v57h-57z"/><path d="m686 914h57v57h-57z"/><path d="m743 914h57v57h-57z"/><path d="m857 914h57v57h-57z"/><path d="m914 914h57v57h-57z"/><path d="m1256 914h57v57h-57z"/><path d="m1313 914h57v57h-57z"/><path d="m1370 914h57v57h-57z"/><path d="m1655 914h57v57h-57z"/><path d="m173 971h57v57h-57z"/><path d="m287 971h57v57h-57z"/><path d="m344 971h57v57h-57z"/><path d="m401 971h57v57h-57z"/><path d="m458 971h57v57h-57z"/><path d="m515 971h57v57h-57z"/><path d="m629 971h57v57h-57z"/><path d="m743 971h57v57h-57z"/><path d="m971 971h57v57h-57z"/><path d="m1028 971h57v57h-57z"/><path d="m1142 971h57v57h-57z"/><path d="m1427 971h57v57h-57z"/><path d="m1655 971h57v57h-57z"/><path d="m1712 971h57v57h-57z"/><path d="m173 1028h57v57h-57z"/><path d="m230 1028h57v57h-57z"/><path d="m344 1028h57v57h-57z"/><path d="m743 1028h57v57h-57z"/><path d="m857 1028h57v57h-57z"/><path d="m971 1028h57v57h-57z"/><path d="m1028 1028h57v57h-57z"/><path d="m1256 1028h57v57h-57z"/><path d="m1370 1028h57v57h-57z"/><path d="m1484 1028h57v57h-57z"/><path d="m1541 1028h57v57h-57z"/><path d="m1655 1028h57v57h-57z"/><path d="m173 1085h57v57h-57z"/><path d="m287 1085h57v57h-57z"/><path d="m344 1085h57v57h-57z"/><path d="m401 1085h57v57h-57z"/><path d="m458 1085h57v57h-57z"/><path d="m515 1085h57v57h-57z"/><path d="m686 1085h57v57h-57z"/><path d="m743 1085h57v57h-57z"/><path d="m800 1085h57v57h-57z"/><path d="m857 1085h57v57h-57z"/><path d="m1028 1085h57v57h-57z"/><path d="m1199 1085h57v57h-57z"/><path d="m1370 1085h57v57h-57z"/><path d="m1484 1085h57v57h-57z"/><path d="m1655 1085h57v57h-57z"/><path d="m173 1142h57v57h-57z"/><path d="m401 1142h57v57h-57z"/><path d="m458 1142h57v57h-57z"/><path d="m572 1142h57v57h-57z"/><path d="m629 1142h57v57h-57z"/><path d="m686 1142h57v57h-57z"/><path d="m800 1142h57v57h-57z"/><path d="m1085 1142h57v57h-57z"/><path d="m1142 1142h57v57h-57z"/><path d="m1199 1142h57v57h-57z"/><path d="m1256 1142h57v57h-57z"/><path d="m1370 1142h57v57h-57z"/><path d="m1541 1142h57v57h-57z"/><path d="m1598 1142h57v57h-57z"/><path d="m1712 1142h57v57h-57z"/><path d="m173 1199h57v57h-57z"/><path d="m230 1199h57v57h-57z"/><path d="m287 1199h57v57h-57z"/><path d="m515 1199h57v57h-57z"/><path d="m572 1199h57v57h-57z"/><path d="m743 1199h57v57h-57z"/><path d="m857 1199h57v57h-57z"/><path d="m914 1199h57v57h-57z"/><path d="m971 1199h57v57h-57z"/><path d="m1028 1199h57v57h-57z"/><path d="m1256 1199h57v57h-57z"/><path d="m1313 1199h57v57h-57z"/><path d="m1370 1199h57v57h-57z"/><path d="m1427 1199h57v57h-57z"/><path d="m1769 1199h57v57h-57z"/><path d="m173 1256h57v57h-57z"/><path d="m230 1256h57v57h-57z"/><path d="m287 1256h57v57h-57z"/><path d="m344 1256h57v57h-57z"/><path d="m686 1256h57v57h-57z"/><path d="m743 1256h57v57h-57z"/><path d="m800 1256h57v57h-57z"/><path d="m914 1256h57v57h-57z"/><path d="m971 1256h57v57h-57z"/><path d="m1028 1256h57v57h-57z"/><path d="m1085 1256h57v57h-57z"/><path d="m1199 1256h57v57h-57z"/><path d="m1427 1256h57v57h-57z"/><path d="m1484 1256h57v57h-57z"/><path d="m1541 1256h57v57h-57z"/><path d="m1598 1256h57v57h-57z"/><path d="m1655 1256h57v57h-57z"/><path d="m1769 1256h57v57h-57z"/><path d="m173 1313h57v57h-57z"/><path d="m230 1313h57v57h-57z"/><path d="m344 1313h57v57h-57z"/><path d="m401 1313h57v57h-57z"/><path d="m458 1313h57v57h-57z"/><path d="m515 1313h57v57h-57z"/><path d="m572 1313h57v57h-57z"/><path d="m629 1313h57v57h-57z"/><path d="m800 1313h57v57h-57z"/><path d="m914 1313h57v57h-57z"/><path d="m1028 1313h57v57h-57z"/><path d="m1142 1313h57v57h-57z"/><path d="m1199 1313h57v57h-57z"/><path d="m1256 1313h57v57h-57z"/><path d="m1313 1313h57v57h-57z"/><path d="m1370 1313h57v57h-57z"/><path d="m1427 1313h57v57h-57z"/><path d="m1484 1313h57v57h-57z"/><path d="m1541 1313h57v57h-57z"/><path d="m1655 1313h57v57h-57z"/><path d="m1712 1313h57v57h-57z"/><path d="m1769 1313h57v57h-57z"/><path d="m629 1370h57v57h-57z"/><path d="m743 1370h57v57h-57z"/><path d="m857 1370h57v57h-57z"/><path d="m914 1370h57v57h-57z"/><path d="m971 1370h57v57h-57z"/><path d="m1085 1370h57v57h-57z"/><path d="m1256 1370h57v57h-57z"/><path d="m1313 1370h57v57h-57z"/><path d="m1541 1370h57v57h-57z"/><path d="m1655 1370h57v57h-57z"/><path d="m1769 1370h57v57h-57z"/><path d="m800 1427h57v57h-57z"/><path d="m914 1427h57v57h-57z"/><path d="m1028 1427h57v57h-57z"/><path d="m1313 1427h57v57h-57z"/><path d="m1427 1427h57v57h-57z"/><path d="m1541 1427h57v57h-57z"/><path d="m1598 1427h57v57h-57z"/><path d="m800 1484h57v57h-57z"/><path d="m857 1484h57v57h-57z"/><path d="m914 1484h57v57h-57z"/><path d="m1028 1484h57v57h-57z"/><path d="m1142 1484h57v57h-57z"/><path d="m1199 1484h57v57h-57z"/><path d="m1313 1484h57v57h-57z"/><path d="m1541 1484h57v57h-57z"/><path d="m1655 1484h57v57h-57z"/><path d="m629 1541h57v57h-57z"/><path d="m686 1541h57v57h-57z"/><path d="m743 1541h57v57h-57z"/><path d="m800 1541h57v57h-57z"/><path d="m857 1541h57v57h-57z"/><path d="m914 1541h57v57h-57z"/><path d="m1028 1541h57v57h-57z"/><path d="m1085 1541h57v57h-57z"/><path d="m1142 1541h57v57h-57z"/><path d="m1256 1541h57v57h-57z"/><path d="m1313 1541h57v57h-57z"/><path d="m1370 1541h57v57h-57z"/><path d="m1427 1541h57v57h-57z"/><path d="m1484 1541h57v57h-57z"/><path d="m1541 1541h57v57h-57z"/><path d="m1598 1541h57v57h-57z"/><path d="m1712 1541h57v57h-57z"/><path d="m629 1598h57v57h-57z"/><path d="m914 1598h57v57h-57z"/><path d="m971 1598h57v57h-57z"/><path d="m1028 1598h57v57h-57z"/><path d="m1085 1598h57v57h-57z"/><path d="m1256 1598h57v57h-57z"/><path d="m1370 1598h57v57h-57z"/><path d="m1427 1598h57v57h-57z"/><path d="m1484 1598h57v57h-57z"/><path d="m1598 1598h57v57h-57z"/><path d="m1655 1598h57v57h-57z"/><path d="m1712 1598h57v57h-57z"/><path d="m743 1655h57v57h-57z"/><path d="m800 1655h57v57h-57z"/><path d="m857 1655h57v57h-57z"/><path d="m914 1655h57v57h-57z"/><path d="m1085 1655h57v57h-57z"/><path d="m1142 1655h57v57h-57z"/><path d="m1427 1655h57v57h-57z"/><path d="m1484 1655h57v57h-57z"/><path d="m1598 1655h57v57h-57z"/><path d="m1655 1655h57v57h-57z"/><path d="m1712 1655h57v57h-57z"/><path d="m1769 1655h57v57h-57z"/><path d="m629 1712h57v57h-57z"/><path d="m743 1712h57v57h-57z"/><path d="m800 1712h57v57h-57z"/><path d="m1028 1712h57v57h-57z"/><path d="m1085 1712h57v57h-57z"/><path d="m1142 1712h57v57h-57z"/><path d="m1199 1712h57v57h-57z"/><path d="m1256 1712h57v57h-57z"/><path d="m1313 1712h57v57h-57z"/><path d="m1370 1712h57v57h-57z"/><path d="m1427 1712h57v57h-57z"/><path d="m1598 1712h57v57h-57z"/><path d="m1712 1712h57v57h-57z"/><path d="m629 1769h57v57h-57z"/><path d="m743 1769h57v57h-57z"/><path d="m971 1769h57v57h-57z"/><path d="m1028 1769h57v57h-57z"/><path d="m1142 1769h57v57h-57z"/><path d="m1256 1769h57v57h-57z"/><path d="m1370 1769h57v57h-57z"/><path d="m1427 1769h57v57h-57z"/><path d="m1484 1769h57v57h-57z"/><path d="m1541 1769h57v57h-57z"/><path d="m1598 1769h57v57h-57z"/><g shape-rendering="auto"><svg enable-background="new 0 0 699.988 699.986" height="399" version="1.1" viewBox="0 0 699.988 699.986" width="399" x="173" y="173"><path d="m600.99 0h-100-99.997-.001-99.997-99.998-99.998-99.999v99.998 99.998 99.998 99.999 99.997 99.998 99.998h99.999 99.998 99.998 99.997.001 99.997 100 99.998v-99.998-99.998-99.997-99.999-99.998-99.998-99.998zm0 199.996v99.998 99.999 99.997 99.998h-100-99.997-.001-99.997-99.998-99.998v-99.998-99.997-99.999-99.998-99.998h99.998 99.998 99.997.001 99.997 100z"/></svg><svg enable-background="new 0 0 699.988 699.988" height="399" version="1.0" viewBox="0 0 699.988 699.988" width="399" x="173" y="173"><path d="m399.994 199.997h-.002-99.996-99.998v99.997 100 99.997h99.998 99.996.002 99.996v-99.997-100-99.997z"/></svg><svg enable-background="new 0 0 699.988 699.986" height="399" version="1.1" viewBox="0 0 699.988 699.986" width="399" x="1427" y="173"><path d="m600.99 0h-100-99.997-.001-99.997-99.998-99.998-99.999v99.998 99.998 99.998 99.999 99.997 99.998 99.998h99.999 99.998 99.998 99.997.001 99.997 100 99.998v-99.998-99.998-99.997-99.999-99.998-99.998-99.998zm0 199.996v99.998 99.999 99.997 99.998h-100-99.997-.001-99.997-99.998-99.998v-99.998-99.997-99.999-99.998-99.998h99.998 99.998 99.997.001 99.997 100z"/></svg><svg enable-background="new 0 0 699.988 699.988" height="399" version="1.0" viewBox="0 0 699.988 699.988" width="399" x="1427" y="173"><path d="m399.994 199.997h-.002-99.996-99.998v99.997 100 99.997h99.998 99.996.002 99.996v-99.997-100-99.997z"/></svg><svg enable-background="new 0 0 699.988 699.986" height="399" version="1.1" viewBox="0 0 699.988 699.986" width="399" x="173" y="1427"><path d="m600.99 0h-100-99.997-.001-99.997-99.998-99.998-99.999v99.998 99.998 99.998 99.999 99.997 99.998 99.998h99.999 99.998 99.998 99.997.001 99.997 100 99.998v-99.998-99.998-99.997-99.999-99.998-99.998-99.998zm0 199.996v99.998 99.999 99.997 99.998h-100-99.997-.001-99.997-99.998-99.998v-99.998-99.997-99.999-99.998-99.998h99.998 99.998 99.997.001 99.997 100z"/></svg><svg enable-background="new 0 0 699.988 699.988" height="399" version="1.0" viewBox="0 0 699.988 699.988" width="399" x="173" y="1427"><path d="m399.994 199.997h-.002-99.996-99.998v99.997 100 99.997h99.998 99.996.002 99.996v-99.997-100-99.997z"/></svg></g></svg></svg>